<?xml version="1.0" encoding="iso-8859-1"?>
<!-- Uploaded to: SVG Repo, www.svgrepo.com, Generator: SVG Repo Mixer Tools -->
<svg version="1.1" id="Layer_1" xmlns="http://www.w3.org/2000/svg" xmlns:xlink="http://www.w3.org/1999/xlink" 
	 viewBox="0 0 512 512" xml:space="preserve">
<rect x="160" y="357.424" style="fill:#333333;" width="192" height="108.336"/>
<polygon points="160,376.16 274.24,376.16 160,434.064 "/>
<path style="fill:#999999;" d="M377.456,487.84H134.544c-9.424,0-17.12-7.712-17.12-17.12l0,0c0-9.424,7.712-17.12,17.12-17.12
	H377.44c9.424,0,17.12,7.712,17.12,17.12l0,0C394.576,480.144,386.864,487.84,377.456,487.84z"/>
<path style="fill:#D6D6D6;" d="M480,376.16H32c-17.6,0-32-14.4-32-32v-288c0-17.6,14.4-32,32-32h448c17.6,0,32,14.4,32,32v288
	C512,361.76,497.6,376.16,480,376.16z"/>
<rect x="21.968" y="46.096" style="fill:#FFFFFF;" width="468.16" height="308.128"/>
<path style="fill:#333333;" d="M352.288,317.552c-5.424,0-10.832-2.064-14.96-6.192l-40.464-40.432
	c-8.272-8.272-8.272-21.68-0.016-29.952c8.272-8.272,21.664-8.288,29.952-0.016l40.464,40.432c8.272,8.272,8.272,21.68,0.016,29.952
	C363.136,315.488,357.712,317.552,352.288,317.552z"/>
<ellipse style="fill:#0BA4E0;" cx="240.8" cy="184.976" rx="102.288" ry="102.224"/>
<ellipse style="fill:#FFFFFF;" cx="240.8" cy="184.976" rx="77.248" ry="77.184"/>
</svg>